Coordinates
version=1
nRows=10
nColumns=40
inDegrees=yes

Units are S.I. units (second, meters, Newtons, ...)
If the header above contains a line with 'inDegrees', this indicates whether rotational values are in degrees (yes) or radians (no).

endheader
time	pelvis_tilt	pelvis_list	pelvis_rotation	pelvis_tx	pelvis_ty	pelvis_tz	hip_flexion_r	hip_adduction_r	hip_rotation_r	knee_angle_r	knee_angle_r_beta	ankle_angle_r	subtalar_angle_r	mtp_angle_r	hip_flexion_l	hip_adduction_l	hip_rotation_l	knee_angle_l	knee_angle_l_beta	ankle_angle_l	subtalar_angle_l	mtp_angle_l	lumbar_extension	lumbar_bending	lumbar_rotation	arm_flex_r	arm_add_r	arm_rot_r	elbow_flex_r	pro_sup_r	wrist_flex_r	wrist_dev_r	arm_flex_l	arm_add_l	arm_rot_l	elbow_flex_l	pro_sup_l	wrist_flex_l	wrist_dev_l
      3.31500000	    -37.26065790	      5.29565584	     -8.95507717	     -0.41035321	      0.64214191	     -0.89178531	    105.90247219	    -13.74653272	      7.50585226	     98.42111627	      1.71777253	     30.36735139	      0.00000000	      0.00000000	    104.96337627	    -35.10916467	      0.70635867	     99.14220500	      1.73035790	     32.97715405	      0.00000000	      0.00000000	    -18.40397432	     -7.35073457	      5.18814074	     16.40903035	    -52.23877488	     89.53555068	     86.56974196	     88.70715017	      0.00000000	      0.00000000	     11.63237544	    -57.93453733	     89.52139697	     92.49318810	     87.00603482	      0.00000000	      0.00000000
      3.32000000	    -37.27033914	      5.26958243	     -9.04849682	     -0.41047527	      0.64213359	     -0.89147016	    105.88427807	    -13.63510127	      7.43773870	     98.39300908	      1.71728197	     30.41830130	      0.00000000	      0.00000000	    105.02094939	    -35.21604183	      0.80091411	     99.14834980	      1.73046515	     32.95727622	      0.00000000	      0.00000000	    -18.39741249	     -7.36183709	      5.29104447	     16.39161241	    -52.20434066	     89.53624045	     86.53616048	     88.71116490	      0.00000000	      0.00000000	     11.65555123	    -57.95677652	     89.52146974	     92.49999088	     86.96863633	      0.00000000	      0.00000000
      3.32500000	    -37.28526331	      5.37054208	     -9.03594890	     -0.41059179	      0.64202961	     -0.89157238	    105.97507325	    -13.63624809	      7.55726435	     98.41498149	      1.71766546	     30.35793865	      0.00000000	      0.00000000	    104.95924114	    -35.19953162	      0.65194866	     99.13714233	      1.73026954	     32.93599682	      0.00000000	      0.00000000	    -18.38797915	     -7.46125592	      5.24202340	     16.40326188	    -52.22698165	     89.53856745	     86.57320982	     88.71244175	      0.00000000	      0.00000000	     11.63948686	    -57.96396629	     89.52160089	     92.49850469	     86.94401538	      0.00000000	      0.00000000
      3.33000000	    -37.27843957	      5.31306570	     -8.94908285	     -0.41063280	      0.64208560	     -0.89178011	    105.95175170	    -13.75994757	      7.50391948	     98.40900048	      1.71756107	     30.35477019	      0.00000000	      0.00000000	    104.98333544	    -35.05545359	      0.72440034	     99.12944414	      1.73013519	     32.94167183	      0.00000000	      0.00000000	    -18.43232351	     -7.37402655	      5.18532544	     16.39631143	    -52.24835174	     89.53825178	     86.61161394	     88.71873502	      0.00000000	      0.00000000	     11.70663537	    -57.92903466	     89.52341824	     92.48833872	     87.07960702	      0.00000000	      0.00000000
      3.33500000	    -37.40299170	      5.17046645	     -8.79986269	     -0.41081286	      0.64183912	     -0.89211330	    106.01774187	    -13.94287454	      7.36502769	     98.41739059	      1.71770751	     30.34095225	      0.00000000	      0.00000000	    105.23570752	    -34.78379207	      0.97615415	     99.11086350	      1.72981089	     32.91839359	      0.00000000	      0.00000000	    -18.34082029	     -7.14113876	      5.09733711	     16.37802101	    -52.28927206	     89.53513512	     86.61383304	     88.70357560	      0.00000000	      0.00000000	     11.65757903	    -57.88003078	     89.52433656	     92.43290543	     87.16244266	      0.00000000	      0.00000000
      3.34000000	    -37.30049242	      5.20830116	     -8.76776546	     -0.41070016	      0.64207409	     -0.89221643	    105.93543284	    -13.99233779	      7.42873977	     98.43688792	      1.71804780	     30.37825992	      0.00000000	      0.00000000	    105.04064507	    -34.76024869	      0.85574933	     99.09376540	      1.72951247	     32.90630304	      0.00000000	      0.00000000	    -18.49063810	     -7.18911408	      5.04216808	     16.40911735	    -52.29530168	     89.53762798	     86.62064998	     88.69564609	      0.00000000	      0.00000000	     11.75294959	    -57.86240762	     89.52958663	     92.46109114	     87.29253727	      0.00000000	      0.00000000
      3.34500000	    -37.40110544	      5.30637854	     -8.92267720	     -0.41106256	      0.64177454	     -0.89174939	    106.09772775	    -13.76275268	      7.48581320	     98.40863903	      1.71755476	     30.30864618	      0.00000000	      0.00000000	    105.18163215	    -34.94252302	      0.86753913	     99.11473347	      1.72987844	     32.86735563	      0.00000000	      0.00000000	    -18.34266753	     -7.35303668	      5.12821672	     16.43831999	    -52.23853301	     89.54712051	     86.66660962	     88.76795956	      0.00000000	      0.00000000	     11.57847043	    -57.98352938	     89.51614220	     92.52405707	     86.73830245	      0.00000000	      0.00000000
      3.35000000	    -37.27996109	      5.32142245	     -9.06749970	     -0.41092208	      0.64202596	     -0.89134694	    105.95173905	    -13.61026763	      7.46470950	     98.38091546	      1.71707090	     30.39156257	      0.00000000	      0.00000000	    105.02644730	    -35.12981565	      0.83779518	     99.12951834	      1.73013648	     32.95579844	      0.00000000	      0.00000000	    -18.47248160	     -7.45229126	      5.23889232	     16.42114688	    -52.20546650	     89.53506031	     86.57633417	     88.73679353	      0.00000000	      0.00000000	     11.65805720	    -57.97264899	     89.52664867	     92.53325130	     87.03189767	      0.00000000	      0.00000000
      3.35500000	    -37.26668818	      5.30305166	     -9.01846997	     -0.41096505	      0.64213659	     -0.89145265	    105.93439971	    -13.67621120	      7.44929227	     98.38228050	      1.71709472	     30.34114618	      0.00000000	      0.00000000	    105.00897620	    -35.03287280	      0.87608999	     99.11965502	      1.72996433	     32.88322634	      0.00000000	      0.00000000	    -18.53111626	     -7.41822456	      5.17740333	     16.45458327	    -52.19767488	     89.54072607	     86.54522494	     88.71254463	      0.00000000	      0.00000000	     11.71266018	    -57.91994419	     89.52982656	     92.46529078	     87.11866579	      0.00000000	      0.00000000
      3.36000000	    -37.28257663	      5.27922070	     -8.97797967	     -0.41104415	      0.64212253	     -0.89151941	    105.93898237	    -13.71637355	      7.44113716	     98.38543157	      1.71714972	     30.36714350	      0.00000000	      0.00000000	    105.04223203	    -34.96513139	      0.90901886	     99.11099487	      1.72981319	     32.88252887	      0.00000000	      0.00000000	    -18.53383057	     -7.38391491	      5.14593230	     16.46794504	    -52.19182204	     89.54179530	     86.53459215	     88.70148715	      0.00000000	      0.00000000	     11.76033100	    -57.90027971	     89.52966751	     92.47272688	     87.21630397	      0.00000000	      0.00000000
